<?xml version="1.0" standalone="no"?>
<!DOCTYPE svg PUBLIC "-//W3C//DTD SVG 20010904//EN"
 "http://www.w3.org/TR/2001/REC-SVG-20010904/DTD/svg10.dtd">
<svg version="1.0" xmlns="http://www.w3.org/2000/svg"
 width="260.000000pt" height="260.000000pt" viewBox="0 0 260.000000 260.000000"
 preserveAspectRatio="xMidYMid meet">
<metadata>
Created by potrace 1.11, written by Peter Selinger 2001-2013
</metadata>
<g transform="translate(0.000000,260.000000) scale(0.100000,-0.100000)"
fill="#000000" stroke="none">
<path d="M1100 2575 c-185 -30 -362 -99 -525 -206 -103 -68 -276 -241 -344
-344 -295 -449 -295 -1001 0 -1450 68 -103 241 -276 344 -344 449 -295 1001
-295 1450 0 103 68 276 241 344 344 295 449 295 1001 0 1450 -68 103 -241 276
-344 344 -277 182 -608 256 -925 206z m378 -556 c89 -30 159 -89 200 -170 17
-35 35 -79 38 -96 l7 -33 -137 0 c-98 0 -136 3 -136 12 0 34 -45 100 -81 118
-69 36 -163 17 -188 -36 -17 -39 -13 -98 9 -126 23 -30 111 -68 225 -99 226
-60 325 -159 325 -324 0 -82 -23 -146 -70 -194 -77 -79 -200 -121 -355 -121
-245 0 -400 101 -450 291 l-13 49 133 0 133 0 28 -57 c38 -76 83 -103 172
-103 98 0 152 38 152 108 0 80 -55 120 -235 171 -177 51 -265 103 -306 182
-62 123 -33 273 73 363 105 90 315 119 476 65z m212 -1414 l0 -75 -390 0 -390
0 0 75 0 75 390 0 390 0 0 -75z"/>
</g>
</svg>
